# xmcd
#
# Track frame offsets:
#	150
#	13651
#	26000
#	37497
#	49876
#	62541
#	74377
#	88305
#	99359
#	108832
#	121414
#	131616
#	144167
#	156540
#	170990
#	179776
#	201151
#	214055
#	233728
#	244535
#	260264
#	269914
#	281041
#	292575
#	304566
#	322221
#	341939
#
# Disc length: 4725 seconds
#
# Revision: 0
# Processed by: cddbd v1.5.2PL0 Copyright (c) Steve Scherf et al.
# Submitted via: audiograbber 1.83.01
#
DISCID=ab12731b
DTITLE=Willie Nelson - One Hell Of A Ride - CD2
DYEAR=2008
DGENRE=Country
TTITLE0=Good Hearted Woman (with Waylon Jennings)
TTITLE1=You Left A Long, Long Time Ago
TTITLE2=She's Not For You
TTITLE3=You Ought To Hear Me Cry
TTITLE4=It Should Be Easier Now
TTITLE5=Mammas Don't Let Your Babies Grow Up To Be Cowboys (Waylon and Willie)
TTITLE6=If You Can Touch Her At All (with Waylon Jennings)
TTITLE7=I Can Get Off On You (with Waylon Jennings)
TTITLE8=Blackjack County Chain
TTITLE9=Johnny One Time
TTITLE10=Bring Me Sunshine
TTITLE11=I Just Can't Let You Say Goodbye
TTITLE12=Shotgun Willie
TTITLE13=Sad Songs And Waltzes
TTITLE14=The Troublemaker
TTITLE15=Uncloudy Day
TTITLE16=Bloody Mary Morning
TTITLE17=I Still Can't Believe You're Gone
TTITLE18=Blue Eyes Crying In The Rain
TTITLE19=I'd Have To Be Crazy
TTITLE20=If You've Got The Money I've Got The Time
TTITLE21=Always Late (With Your Kisses)
TTITLE22=She's Gone, Gone, Gone
TTITLE23=I Never Go Around Mirrors
TTITLE24=Stardust
TTITLE25=Georgia On My Mind
TTITLE26=A Song For You (Live)
EXTD=
EXTT0=
EXTT1=
EXTT2=
EXTT3=
EXTT4=
EXTT5=
EXTT6=
EXTT7=
EXTT8=
EXTT9=
EXTT10=
EXTT11=
EXTT12=
EXTT13=
EXTT14=
EXTT15=
EXTT16=
EXTT17=
EXTT18=
EXTT19=
EXTT20=
EXTT21=
EXTT22=
EXTT23=
EXTT24=
EXTT25=
EXTT26=
PLAYORDER=
